<mxfile host="app.diagrams.net" modified="2024-05-12T22:33:36.185Z" agent="Mozilla/5.0 (Windows NT 10.0; Win64; x64) AppleWebKit/537.36 (KHTML, like Gecko) Chrome/124.0.0.0 Safari/537.36" etag="dddmYyhsO0A3iR62pOI0" version="24.4.0" type="device">
  <diagram name="Page-1" id="Wz1TSH5H08JwaPJTa6B2">
    <mxGraphModel dx="3434" dy="2573" grid="1" gridSize="10" guides="1" tooltips="1" connect="1" arrows="1" fold="1" page="1" pageScale="1" pageWidth="827" pageHeight="1169" math="0" shadow="0">
      <root>
        <mxCell id="0" />
        <mxCell id="1" parent="0" />
        <mxCell id="wNwlXLfFwuVpIh5QNyUG-4" value="Issue Map" style="html=1;dashed=0;whiteSpace=wrap;shape=mxgraph.dfd.start" vertex="1" parent="1">
          <mxGeometry x="-40" y="240" width="80" height="30" as="geometry" />
        </mxCell>
        <mxCell id="wNwlXLfFwuVpIh5QNyUG-7" value="Mitigation" style="html=1;dashed=0;whiteSpace=wrap;shape=mxgraph.dfd.start" vertex="1" parent="1">
          <mxGeometry x="220" y="520" width="150" height="30" as="geometry" />
        </mxCell>
        <mxCell id="wNwlXLfFwuVpIh5QNyUG-8" value="Diagnostic Key Question and Possible Causes" style="html=1;dashed=0;whiteSpace=wrap;shape=mxgraph.dfd.start" vertex="1" parent="1">
          <mxGeometry x="220" y="-330" width="260" height="30" as="geometry" />
        </mxCell>
        <mxCell id="wNwlXLfFwuVpIh5QNyUG-9" value="Solution" style="html=1;dashed=0;whiteSpace=wrap;shape=mxgraph.dfd.start" vertex="1" parent="1">
          <mxGeometry x="220" y="840" width="150" height="30" as="geometry" />
        </mxCell>
        <mxCell id="wNwlXLfFwuVpIh5QNyUG-10" value="Problem" style="html=1;dashed=0;whiteSpace=wrap;shape=mxgraph.dfd.start" vertex="1" parent="1">
          <mxGeometry x="220" y="240" width="150" height="30" as="geometry" />
        </mxCell>
        <mxCell id="wNwlXLfFwuVpIh5QNyUG-11" value="Solution Key Question and Potentinal Solutions" style="html=1;dashed=0;whiteSpace=wrap;shape=mxgraph.dfd.start" vertex="1" parent="1">
          <mxGeometry x="220" y="-30" width="270" height="30" as="geometry" />
        </mxCell>
        <mxCell id="wNwlXLfFwuVpIh5QNyUG-26" value="" style="endArrow=none;html=1;rounded=0;exitX=1;exitY=0.5;exitDx=0;exitDy=0;exitPerimeter=0;entryX=0;entryY=0.5;entryDx=0;entryDy=0;entryPerimeter=0;" edge="1" parent="1" source="wNwlXLfFwuVpIh5QNyUG-4" target="wNwlXLfFwuVpIh5QNyUG-11">
          <mxGeometry width="50" height="50" relative="1" as="geometry">
            <mxPoint x="810" y="300" as="sourcePoint" />
            <mxPoint x="860" y="250" as="targetPoint" />
          </mxGeometry>
        </mxCell>
        <mxCell id="wNwlXLfFwuVpIh5QNyUG-27" value="" style="endArrow=none;html=1;rounded=0;entryX=0;entryY=0.5;entryDx=0;entryDy=0;entryPerimeter=0;" edge="1" parent="1" target="wNwlXLfFwuVpIh5QNyUG-10">
          <mxGeometry width="50" height="50" relative="1" as="geometry">
            <mxPoint x="40" y="250" as="sourcePoint" />
            <mxPoint x="230" y="-135" as="targetPoint" />
          </mxGeometry>
        </mxCell>
        <mxCell id="wNwlXLfFwuVpIh5QNyUG-28" value="" style="endArrow=none;html=1;rounded=0;exitX=1;exitY=0.5;exitDx=0;exitDy=0;exitPerimeter=0;entryX=0;entryY=0.5;entryDx=0;entryDy=0;entryPerimeter=0;" edge="1" parent="1" source="wNwlXLfFwuVpIh5QNyUG-4" target="wNwlXLfFwuVpIh5QNyUG-7">
          <mxGeometry width="50" height="50" relative="1" as="geometry">
            <mxPoint x="50" y="265" as="sourcePoint" />
            <mxPoint x="230" y="-135" as="targetPoint" />
          </mxGeometry>
        </mxCell>
        <mxCell id="wNwlXLfFwuVpIh5QNyUG-30" value="" style="endArrow=none;html=1;rounded=0;exitX=0;exitY=0.5;exitDx=0;exitDy=0;exitPerimeter=0;entryX=1;entryY=0.5;entryDx=0;entryDy=0;entryPerimeter=0;" edge="1" parent="1" source="wNwlXLfFwuVpIh5QNyUG-8" target="wNwlXLfFwuVpIh5QNyUG-4">
          <mxGeometry width="50" height="50" relative="1" as="geometry">
            <mxPoint x="1160" y="-80" as="sourcePoint" />
            <mxPoint x="1210" y="-130" as="targetPoint" />
          </mxGeometry>
        </mxCell>
        <mxCell id="wNwlXLfFwuVpIh5QNyUG-31" value="" style="endArrow=none;html=1;rounded=0;exitX=0;exitY=0.5;exitDx=0;exitDy=0;exitPerimeter=0;entryX=1;entryY=0.5;entryDx=0;entryDy=0;entryPerimeter=0;" edge="1" parent="1" source="wNwlXLfFwuVpIh5QNyUG-9" target="wNwlXLfFwuVpIh5QNyUG-4">
          <mxGeometry width="50" height="50" relative="1" as="geometry">
            <mxPoint x="1010" y="490" as="sourcePoint" />
            <mxPoint x="1060" y="440" as="targetPoint" />
          </mxGeometry>
        </mxCell>
        <mxCell id="wNwlXLfFwuVpIh5QNyUG-32" value="Lack of understanding of rugby fundamentals and terminology" style="html=1;dashed=0;whiteSpace=wrap;shape=mxgraph.dfd.start" vertex="1" parent="1">
          <mxGeometry x="480" y="135" width="360" height="30" as="geometry" />
        </mxCell>
        <mxCell id="wNwlXLfFwuVpIh5QNyUG-33" value="Difficulty organizing classes and managing class attributes" style="html=1;dashed=0;whiteSpace=wrap;shape=mxgraph.dfd.start" vertex="1" parent="1">
          <mxGeometry x="480" y="205" width="360" height="30" as="geometry" />
        </mxCell>
        <mxCell id="wNwlXLfFwuVpIh5QNyUG-34" value="Uncertainty regarding the structure and organization of the Team class" style="html=1;dashed=0;whiteSpace=wrap;shape=mxgraph.dfd.start" vertex="1" parent="1">
          <mxGeometry x="480" y="275" width="360" height="30" as="geometry" />
        </mxCell>
        <mxCell id="wNwlXLfFwuVpIh5QNyUG-35" value="Challenge in selecting an efficient searching algorithm for the database" style="html=1;dashed=0;whiteSpace=wrap;shape=mxgraph.dfd.start" vertex="1" parent="1">
          <mxGeometry x="480" y="345" width="360" height="30" as="geometry" />
        </mxCell>
        <mxCell id="wNwlXLfFwuVpIh5QNyUG-36" value="Gather data on rugby basics" style="html=1;dashed=0;whiteSpace=wrap;shape=mxgraph.dfd.start" vertex="1" parent="1">
          <mxGeometry x="480" y="735" width="210" height="30" as="geometry" />
        </mxCell>
        <mxCell id="wNwlXLfFwuVpIh5QNyUG-37" value="Analyze class organization strategies" style="html=1;dashed=0;whiteSpace=wrap;shape=mxgraph.dfd.start" vertex="1" parent="1">
          <mxGeometry x="480" y="805" width="210" height="30" as="geometry" />
        </mxCell>
        <mxCell id="wNwlXLfFwuVpIh5QNyUG-38" value="Evaluate Team class structures" style="html=1;dashed=0;whiteSpace=wrap;shape=mxgraph.dfd.start" vertex="1" parent="1">
          <mxGeometry x="480" y="875" width="210" height="30" as="geometry" />
        </mxCell>
        <mxCell id="wNwlXLfFwuVpIh5QNyUG-39" value="Experiment with different searching algorithms" style="html=1;dashed=0;whiteSpace=wrap;shape=mxgraph.dfd.start" vertex="1" parent="1">
          <mxGeometry x="480" y="945" width="210" height="30" as="geometry" />
        </mxCell>
        <mxCell id="wNwlXLfFwuVpIh5QNyUG-42" value="Conduct thorough research on rugby basics to gain necessary knowledge" style="html=1;dashed=0;whiteSpace=wrap;shape=mxgraph.dfd.start" vertex="1" parent="1">
          <mxGeometry x="480" y="415" width="360" height="30" as="geometry" />
        </mxCell>
        <mxCell id="wNwlXLfFwuVpIh5QNyUG-43" value="Utilize inheritance and enumeration in class design for better organization" style="html=1;dashed=0;whiteSpace=wrap;shape=mxgraph.dfd.start" vertex="1" parent="1">
          <mxGeometry x="480" y="485" width="360" height="30" as="geometry" />
        </mxCell>
        <mxCell id="wNwlXLfFwuVpIh5QNyUG-44" value="Discuss and brainstorm different approaches for structuring the Team class" style="html=1;dashed=0;whiteSpace=wrap;shape=mxgraph.dfd.start" vertex="1" parent="1">
          <mxGeometry x="480" y="555" width="360" height="30" as="geometry" />
        </mxCell>
        <mxCell id="wNwlXLfFwuVpIh5QNyUG-45" value="Evaluate and experiment with different searching algorithms to determine the most suitable one" style="html=1;dashed=0;whiteSpace=wrap;shape=mxgraph.dfd.start" vertex="1" parent="1">
          <mxGeometry x="480" y="625" width="360" height="30" as="geometry" />
        </mxCell>
        <mxCell id="wNwlXLfFwuVpIh5QNyUG-50" value="What are the main challenges in designing and implementing the Rugby Club program?" style="html=1;dashed=0;whiteSpace=wrap;shape=mxgraph.dfd.start" vertex="1" parent="1">
          <mxGeometry x="500" y="-330" width="480" height="30" as="geometry" />
        </mxCell>
        <mxCell id="wNwlXLfFwuVpIh5QNyUG-51" value="How can the identified challenges be addressed effectively?" style="html=1;dashed=0;whiteSpace=wrap;shape=mxgraph.dfd.start" vertex="1" parent="1">
          <mxGeometry x="560" y="-30" width="420" height="30" as="geometry" />
        </mxCell>
        <mxCell id="wNwlXLfFwuVpIh5QNyUG-52" value="Lack of domain knowledge in rugby" style="html=1;dashed=0;whiteSpace=wrap;shape=mxgraph.dfd.start" vertex="1" parent="1">
          <mxGeometry x="1070" y="-435" width="250" height="30" as="geometry" />
        </mxCell>
        <mxCell id="wNwlXLfFwuVpIh5QNyUG-53" value="Complexities in class organization" style="html=1;dashed=0;whiteSpace=wrap;shape=mxgraph.dfd.start" vertex="1" parent="1">
          <mxGeometry x="1070" y="-365" width="250" height="30" as="geometry" />
        </mxCell>
        <mxCell id="wNwlXLfFwuVpIh5QNyUG-54" value="Uncertainty about database structure" style="html=1;dashed=0;whiteSpace=wrap;shape=mxgraph.dfd.start" vertex="1" parent="1">
          <mxGeometry x="1070" y="-295" width="250" height="30" as="geometry" />
        </mxCell>
        <mxCell id="wNwlXLfFwuVpIh5QNyUG-55" value="Difficulties in selecting optimal algorithms" style="html=1;dashed=0;whiteSpace=wrap;shape=mxgraph.dfd.start" vertex="1" parent="1">
          <mxGeometry x="1070" y="-225" width="250" height="30" as="geometry" />
        </mxCell>
        <mxCell id="wNwlXLfFwuVpIh5QNyUG-56" value="Conduct research on rugby fundamentals" style="html=1;dashed=0;whiteSpace=wrap;shape=mxgraph.dfd.start" vertex="1" parent="1">
          <mxGeometry x="1070" y="-145" width="250" height="30" as="geometry" />
        </mxCell>
        <mxCell id="wNwlXLfFwuVpIh5QNyUG-57" value="Utilize inheritance and enumeration" style="html=1;dashed=0;whiteSpace=wrap;shape=mxgraph.dfd.start" vertex="1" parent="1">
          <mxGeometry x="1070" y="-75" width="250" height="30" as="geometry" />
        </mxCell>
        <mxCell id="wNwlXLfFwuVpIh5QNyUG-58" value="Collaborate on Team class design" style="html=1;dashed=0;whiteSpace=wrap;shape=mxgraph.dfd.start" vertex="1" parent="1">
          <mxGeometry x="1070" y="-5" width="250" height="30" as="geometry" />
        </mxCell>
        <mxCell id="wNwlXLfFwuVpIh5QNyUG-59" value="Experiment with searching algorithms" style="html=1;dashed=0;whiteSpace=wrap;shape=mxgraph.dfd.start" vertex="1" parent="1">
          <mxGeometry x="1070" y="65" width="250" height="30" as="geometry" />
        </mxCell>
        <mxCell id="wNwlXLfFwuVpIh5QNyUG-60" value="" style="endArrow=none;html=1;rounded=0;exitX=1;exitY=0.5;exitDx=0;exitDy=0;exitPerimeter=0;entryX=0;entryY=0.5;entryDx=0;entryDy=0;entryPerimeter=0;" edge="1" parent="1" source="wNwlXLfFwuVpIh5QNyUG-50" target="wNwlXLfFwuVpIh5QNyUG-55">
          <mxGeometry width="50" height="50" relative="1" as="geometry">
            <mxPoint x="1010" y="490" as="sourcePoint" />
            <mxPoint x="1060" y="440" as="targetPoint" />
          </mxGeometry>
        </mxCell>
        <mxCell id="wNwlXLfFwuVpIh5QNyUG-66" value="" style="endArrow=none;html=1;rounded=0;exitX=1;exitY=0.5;exitDx=0;exitDy=0;exitPerimeter=0;entryX=0;entryY=0.5;entryDx=0;entryDy=0;entryPerimeter=0;" edge="1" parent="1" source="wNwlXLfFwuVpIh5QNyUG-50" target="wNwlXLfFwuVpIh5QNyUG-54">
          <mxGeometry width="50" height="50" relative="1" as="geometry">
            <mxPoint x="1020" y="500" as="sourcePoint" />
            <mxPoint x="1070" y="450" as="targetPoint" />
          </mxGeometry>
        </mxCell>
        <mxCell id="wNwlXLfFwuVpIh5QNyUG-67" value="" style="endArrow=none;html=1;rounded=0;exitX=1;exitY=0.5;exitDx=0;exitDy=0;exitPerimeter=0;entryX=0;entryY=0.5;entryDx=0;entryDy=0;entryPerimeter=0;" edge="1" parent="1" source="wNwlXLfFwuVpIh5QNyUG-50" target="wNwlXLfFwuVpIh5QNyUG-53">
          <mxGeometry width="50" height="50" relative="1" as="geometry">
            <mxPoint x="1030" y="510" as="sourcePoint" />
            <mxPoint x="1080" y="460" as="targetPoint" />
          </mxGeometry>
        </mxCell>
        <mxCell id="wNwlXLfFwuVpIh5QNyUG-68" value="" style="endArrow=none;html=1;rounded=0;exitX=1;exitY=0.5;exitDx=0;exitDy=0;exitPerimeter=0;entryX=0;entryY=0.5;entryDx=0;entryDy=0;entryPerimeter=0;" edge="1" parent="1" source="wNwlXLfFwuVpIh5QNyUG-50" target="wNwlXLfFwuVpIh5QNyUG-52">
          <mxGeometry width="50" height="50" relative="1" as="geometry">
            <mxPoint x="1040" y="520" as="sourcePoint" />
            <mxPoint x="1090" y="470" as="targetPoint" />
          </mxGeometry>
        </mxCell>
        <mxCell id="wNwlXLfFwuVpIh5QNyUG-69" value="" style="endArrow=none;html=1;rounded=0;exitX=1;exitY=0.5;exitDx=0;exitDy=0;exitPerimeter=0;entryX=0;entryY=0.5;entryDx=0;entryDy=0;entryPerimeter=0;" edge="1" parent="1" source="wNwlXLfFwuVpIh5QNyUG-8" target="wNwlXLfFwuVpIh5QNyUG-50">
          <mxGeometry width="50" height="50" relative="1" as="geometry">
            <mxPoint x="1050" y="530" as="sourcePoint" />
            <mxPoint x="1100" y="480" as="targetPoint" />
          </mxGeometry>
        </mxCell>
        <mxCell id="wNwlXLfFwuVpIh5QNyUG-70" value="" style="endArrow=none;html=1;rounded=0;exitX=1;exitY=0.5;exitDx=0;exitDy=0;exitPerimeter=0;entryX=0;entryY=0.5;entryDx=0;entryDy=0;entryPerimeter=0;" edge="1" parent="1" source="wNwlXLfFwuVpIh5QNyUG-10" target="wNwlXLfFwuVpIh5QNyUG-32">
          <mxGeometry width="50" height="50" relative="1" as="geometry">
            <mxPoint x="1060" y="540" as="sourcePoint" />
            <mxPoint x="1110" y="490" as="targetPoint" />
          </mxGeometry>
        </mxCell>
        <mxCell id="wNwlXLfFwuVpIh5QNyUG-71" value="" style="endArrow=none;html=1;rounded=0;exitX=1;exitY=0.5;exitDx=0;exitDy=0;exitPerimeter=0;entryX=0;entryY=0.5;entryDx=0;entryDy=0;entryPerimeter=0;" edge="1" parent="1" source="wNwlXLfFwuVpIh5QNyUG-11" target="wNwlXLfFwuVpIh5QNyUG-51">
          <mxGeometry width="50" height="50" relative="1" as="geometry">
            <mxPoint x="1070" y="550" as="sourcePoint" />
            <mxPoint x="1120" y="500" as="targetPoint" />
          </mxGeometry>
        </mxCell>
        <mxCell id="wNwlXLfFwuVpIh5QNyUG-72" value="" style="endArrow=none;html=1;rounded=0;exitX=1;exitY=0.5;exitDx=0;exitDy=0;exitPerimeter=0;entryX=0;entryY=0.5;entryDx=0;entryDy=0;entryPerimeter=0;" edge="1" parent="1" source="wNwlXLfFwuVpIh5QNyUG-10" target="wNwlXLfFwuVpIh5QNyUG-33">
          <mxGeometry width="50" height="50" relative="1" as="geometry">
            <mxPoint x="1080" y="560" as="sourcePoint" />
            <mxPoint x="1130" y="510" as="targetPoint" />
          </mxGeometry>
        </mxCell>
        <mxCell id="wNwlXLfFwuVpIh5QNyUG-73" value="" style="endArrow=none;html=1;rounded=0;exitX=1;exitY=0.5;exitDx=0;exitDy=0;exitPerimeter=0;entryX=0;entryY=0.5;entryDx=0;entryDy=0;entryPerimeter=0;" edge="1" parent="1" source="wNwlXLfFwuVpIh5QNyUG-10" target="wNwlXLfFwuVpIh5QNyUG-34">
          <mxGeometry width="50" height="50" relative="1" as="geometry">
            <mxPoint x="1090" y="570" as="sourcePoint" />
            <mxPoint x="470" y="180" as="targetPoint" />
          </mxGeometry>
        </mxCell>
        <mxCell id="wNwlXLfFwuVpIh5QNyUG-74" value="" style="endArrow=none;html=1;rounded=0;exitX=1;exitY=0.5;exitDx=0;exitDy=0;exitPerimeter=0;entryX=0;entryY=0.5;entryDx=0;entryDy=0;entryPerimeter=0;" edge="1" parent="1" source="wNwlXLfFwuVpIh5QNyUG-10" target="wNwlXLfFwuVpIh5QNyUG-35">
          <mxGeometry width="50" height="50" relative="1" as="geometry">
            <mxPoint x="1100" y="580" as="sourcePoint" />
            <mxPoint x="1150" y="530" as="targetPoint" />
          </mxGeometry>
        </mxCell>
        <mxCell id="wNwlXLfFwuVpIh5QNyUG-75" value="" style="endArrow=none;html=1;rounded=0;exitX=1;exitY=0.5;exitDx=0;exitDy=0;exitPerimeter=0;entryX=0;entryY=0.5;entryDx=0;entryDy=0;entryPerimeter=0;" edge="1" parent="1" source="wNwlXLfFwuVpIh5QNyUG-7" target="wNwlXLfFwuVpIh5QNyUG-42">
          <mxGeometry width="50" height="50" relative="1" as="geometry">
            <mxPoint x="1110" y="590" as="sourcePoint" />
            <mxPoint x="1160" y="540" as="targetPoint" />
          </mxGeometry>
        </mxCell>
        <mxCell id="wNwlXLfFwuVpIh5QNyUG-76" value="" style="endArrow=none;html=1;rounded=0;exitX=1;exitY=0.5;exitDx=0;exitDy=0;exitPerimeter=0;entryX=0;entryY=0.5;entryDx=0;entryDy=0;entryPerimeter=0;" edge="1" parent="1" source="wNwlXLfFwuVpIh5QNyUG-7" target="wNwlXLfFwuVpIh5QNyUG-43">
          <mxGeometry width="50" height="50" relative="1" as="geometry">
            <mxPoint x="1120" y="600" as="sourcePoint" />
            <mxPoint x="1170" y="550" as="targetPoint" />
          </mxGeometry>
        </mxCell>
        <mxCell id="wNwlXLfFwuVpIh5QNyUG-77" value="" style="endArrow=none;html=1;rounded=0;exitX=1;exitY=0.5;exitDx=0;exitDy=0;exitPerimeter=0;entryX=0;entryY=0.5;entryDx=0;entryDy=0;entryPerimeter=0;" edge="1" parent="1" source="wNwlXLfFwuVpIh5QNyUG-7" target="wNwlXLfFwuVpIh5QNyUG-44">
          <mxGeometry width="50" height="50" relative="1" as="geometry">
            <mxPoint x="1130" y="610" as="sourcePoint" />
            <mxPoint x="1180" y="560" as="targetPoint" />
          </mxGeometry>
        </mxCell>
        <mxCell id="wNwlXLfFwuVpIh5QNyUG-78" value="" style="endArrow=none;html=1;rounded=0;exitX=1;exitY=0.5;exitDx=0;exitDy=0;exitPerimeter=0;entryX=0;entryY=0.5;entryDx=0;entryDy=0;entryPerimeter=0;" edge="1" parent="1" source="wNwlXLfFwuVpIh5QNyUG-7" target="wNwlXLfFwuVpIh5QNyUG-45">
          <mxGeometry width="50" height="50" relative="1" as="geometry">
            <mxPoint x="1140" y="620" as="sourcePoint" />
            <mxPoint x="1190" y="570" as="targetPoint" />
          </mxGeometry>
        </mxCell>
        <mxCell id="wNwlXLfFwuVpIh5QNyUG-79" value="" style="endArrow=none;html=1;rounded=0;exitX=1;exitY=0.5;exitDx=0;exitDy=0;exitPerimeter=0;entryX=0;entryY=0;entryDx=4.395;entryDy=25.604999999999997;entryPerimeter=0;" edge="1" parent="1" source="wNwlXLfFwuVpIh5QNyUG-9" target="wNwlXLfFwuVpIh5QNyUG-36">
          <mxGeometry width="50" height="50" relative="1" as="geometry">
            <mxPoint x="1150" y="630" as="sourcePoint" />
            <mxPoint x="1200" y="580" as="targetPoint" />
          </mxGeometry>
        </mxCell>
        <mxCell id="wNwlXLfFwuVpIh5QNyUG-80" value="" style="endArrow=none;html=1;rounded=0;exitX=1;exitY=0.5;exitDx=0;exitDy=0;exitPerimeter=0;entryX=0;entryY=0.5;entryDx=0;entryDy=0;entryPerimeter=0;" edge="1" parent="1" source="wNwlXLfFwuVpIh5QNyUG-9" target="wNwlXLfFwuVpIh5QNyUG-38">
          <mxGeometry width="50" height="50" relative="1" as="geometry">
            <mxPoint x="1160" y="640" as="sourcePoint" />
            <mxPoint x="1210" y="590" as="targetPoint" />
          </mxGeometry>
        </mxCell>
        <mxCell id="wNwlXLfFwuVpIh5QNyUG-81" value="" style="endArrow=none;html=1;rounded=0;exitX=1;exitY=0.5;exitDx=0;exitDy=0;exitPerimeter=0;entryX=0;entryY=0.5;entryDx=0;entryDy=0;entryPerimeter=0;" edge="1" parent="1" source="wNwlXLfFwuVpIh5QNyUG-9" target="wNwlXLfFwuVpIh5QNyUG-37">
          <mxGeometry width="50" height="50" relative="1" as="geometry">
            <mxPoint x="1170" y="650" as="sourcePoint" />
            <mxPoint x="1220" y="600" as="targetPoint" />
          </mxGeometry>
        </mxCell>
        <mxCell id="wNwlXLfFwuVpIh5QNyUG-82" value="v" style="endArrow=none;html=1;rounded=0;exitX=1;exitY=0.5;exitDx=0;exitDy=0;exitPerimeter=0;entryX=0;entryY=0.5;entryDx=0;entryDy=0;entryPerimeter=0;" edge="1" parent="1" source="wNwlXLfFwuVpIh5QNyUG-9" target="wNwlXLfFwuVpIh5QNyUG-39">
          <mxGeometry width="50" height="50" relative="1" as="geometry">
            <mxPoint x="1180" y="660" as="sourcePoint" />
            <mxPoint x="1230" y="610" as="targetPoint" />
          </mxGeometry>
        </mxCell>
        <mxCell id="wNwlXLfFwuVpIh5QNyUG-83" value="" style="endArrow=none;html=1;rounded=0;exitX=1;exitY=0.5;exitDx=0;exitDy=0;exitPerimeter=0;entryX=0;entryY=0.5;entryDx=0;entryDy=0;entryPerimeter=0;" edge="1" parent="1" source="wNwlXLfFwuVpIh5QNyUG-51" target="wNwlXLfFwuVpIh5QNyUG-56">
          <mxGeometry width="50" height="50" relative="1" as="geometry">
            <mxPoint x="1020" y="500" as="sourcePoint" />
            <mxPoint x="1070" y="450" as="targetPoint" />
          </mxGeometry>
        </mxCell>
        <mxCell id="wNwlXLfFwuVpIh5QNyUG-84" value="" style="endArrow=none;html=1;rounded=0;exitX=1;exitY=0.5;exitDx=0;exitDy=0;exitPerimeter=0;entryX=0;entryY=0.5;entryDx=0;entryDy=0;entryPerimeter=0;" edge="1" parent="1" source="wNwlXLfFwuVpIh5QNyUG-51" target="wNwlXLfFwuVpIh5QNyUG-58">
          <mxGeometry width="50" height="50" relative="1" as="geometry">
            <mxPoint x="1030" y="510" as="sourcePoint" />
            <mxPoint x="1080" y="460" as="targetPoint" />
          </mxGeometry>
        </mxCell>
        <mxCell id="wNwlXLfFwuVpIh5QNyUG-85" value="" style="endArrow=none;html=1;rounded=0;exitX=1;exitY=0.5;exitDx=0;exitDy=0;exitPerimeter=0;entryX=0;entryY=0.5;entryDx=0;entryDy=0;entryPerimeter=0;" edge="1" parent="1" source="wNwlXLfFwuVpIh5QNyUG-51" target="wNwlXLfFwuVpIh5QNyUG-57">
          <mxGeometry width="50" height="50" relative="1" as="geometry">
            <mxPoint x="1040" y="520" as="sourcePoint" />
            <mxPoint x="1090" y="470" as="targetPoint" />
          </mxGeometry>
        </mxCell>
        <mxCell id="wNwlXLfFwuVpIh5QNyUG-86" value="" style="endArrow=none;html=1;rounded=0;exitX=1;exitY=0.5;exitDx=0;exitDy=0;exitPerimeter=0;entryX=0;entryY=0.5;entryDx=0;entryDy=0;entryPerimeter=0;" edge="1" parent="1" source="wNwlXLfFwuVpIh5QNyUG-51" target="wNwlXLfFwuVpIh5QNyUG-59">
          <mxGeometry width="50" height="50" relative="1" as="geometry">
            <mxPoint x="1050" y="530" as="sourcePoint" />
            <mxPoint x="1100" y="480" as="targetPoint" />
          </mxGeometry>
        </mxCell>
      </root>
    </mxGraphModel>
  </diagram>
</mxfile>
